<svg xmlns="http://www.w3.org/2000/svg" viewBox="0 0 64 64" role="img" aria-labelledby="title">
  <title id="title">Eiomra bot</title>
  <defs>
    <linearGradient id="background" x1="8" y1="6" x2="58" y2="60" gradientUnits="userSpaceOnUse">
      <stop stop-color="#7136c8"/>
      <stop offset="1" stop-color="#32105f"/>
    </linearGradient>
    <linearGradient id="face" x1="20" y1="19" x2="46" y2="47" gradientUnits="userSpaceOnUse">
      <stop stop-color="#f0e9ff"/>
      <stop offset="1" stop-color="#bca6f8"/>
    </linearGradient>
  </defs>
  <rect width="64" height="64" rx="15" fill="url(#background)"/>
  <path d="M32 14v6" stroke="#d8c8ff" stroke-width="3" stroke-linecap="round"/>
  <circle cx="32" cy="12" r="3" fill="#d8c8ff"/>
  <rect x="16" y="20" width="32" height="29" rx="9" fill="url(#face)"/>
  <path d="M16 29h-3a3 3 0 0 0-3 3v7a3 3 0 0 0 3 3h3M48 29h3a3 3 0 0 1 3 3v7a3 3 0 0 1-3 3h-3" fill="none" stroke="#bca6f8" stroke-width="3" stroke-linecap="round"/>
  <circle cx="25" cy="33" r="3" fill="#4b1880"/>
  <circle cx="39" cy="33" r="3" fill="#4b1880"/>
  <path d="M25 41c2.1 1.7 4.4 2.5 7 2.5s4.9-.8 7-2.5" fill="none" stroke="#4b1880" stroke-width="2.5" stroke-linecap="round"/>
</svg>
